<svg width="27" height="34" viewBox="0 0 27 34" fill="none" xmlns="http://www.w3.org/2000/svg">
<path d="M13.5976 28.4905C13.9263 28.4629 14.2072 28.332 14.4406 28.098C14.6728 27.8628 14.7889 27.5797 14.7889 27.2485C14.7889 26.8621 14.6657 26.5518 14.4192 26.3178C14.1727 26.0826 13.8578 25.9789 13.4744 26.0065C12.3515 26.0893 11.1602 25.779 9.90037 25.0758C8.64057 24.3714 7.84635 23.0947 7.5177 21.2454C7.46293 20.9418 7.31888 20.6934 7.08554 20.5002C6.8533 20.307 6.58655 20.2104 6.28529 20.2104C5.90187 20.2104 5.58692 20.3551 5.34044 20.6443C5.09396 20.9347 5.0118 21.273 5.09396 21.6595C5.55954 24.1711 6.65502 25.9651 8.38039 27.0415C10.1058 28.1179 11.8448 28.6009 13.5976 28.4905ZM13.1457 33.4585C9.39371 33.4585 6.26503 32.1613 3.75967 29.5669C1.25321 26.9725 -1.52588e-05 23.7433 -1.52588e-05 19.8792C-1.52588e-05 17.1192 1.08889 14.118 3.2667 10.8755C5.44342 7.63198 8.73642 4.11959 13.1457 0.338379C17.555 4.11959 20.8486 7.63198 23.0264 10.8755C25.2031 14.118 26.2915 17.1192 26.2915 19.8792C26.2915 23.7433 25.0382 26.9725 22.5318 29.5669C20.0264 32.1613 16.8977 33.4585 13.1457 33.4585Z" fill="#ABABAB"/>
</svg>
