<svg width="34" height="15" viewBox="0 0 34 15" fill="none" xmlns="http://www.w3.org/2000/svg">
<path d="M5.08482 12.4165L2.93986 9.46403V12.4165H0.782281V3.07961H2.93986V8.24014L5.07221 5.37598H7.73448L4.80724 8.90886L7.75972 12.4165H5.08482ZM17.1239 5.30028C17.9987 5.30028 18.6927 5.56524 19.2058 6.09517C19.7273 6.6251 19.9881 7.36112 19.9881 8.30322V12.4165H17.8431V8.59342C17.8431 8.1392 17.7211 7.79011 17.4772 7.54618C17.2417 7.29383 16.9136 7.16765 16.493 7.16765C16.0725 7.16765 15.7402 7.29383 15.4963 7.54618C15.2607 7.79011 15.143 8.1392 15.143 8.59342V12.4165H12.998V8.59342C12.998 8.1392 12.8761 7.79011 12.6321 7.54618C12.3966 7.29383 12.0685 7.16765 11.648 7.16765C11.2274 7.16765 10.8951 7.29383 10.6512 7.54618C10.4157 7.79011 10.2979 8.1392 10.2979 8.59342V12.4165H8.14031V5.37598H10.2979V6.2592C10.5166 5.96479 10.8026 5.73347 11.1559 5.56524C11.5092 5.3886 11.9087 5.30028 12.3545 5.30028C12.8845 5.30028 13.3555 5.41383 13.7677 5.64095C14.1883 5.86806 14.5163 6.19191 14.7518 6.61249C14.9958 6.22555 15.328 5.91012 15.7486 5.66618C16.1692 5.42224 16.6276 5.30028 17.1239 5.30028ZM25.8627 0.429948L22.4812 14.776H20.3993L23.7808 0.429948H25.8627ZM30.6589 5.30028C31.4664 5.30028 32.1141 5.56945 32.602 6.10779C33.0898 6.63772 33.3338 7.36953 33.3338 8.30322V12.4165H31.1888V8.59342C31.1888 8.12237 31.0668 7.75647 30.8229 7.49571C30.579 7.23495 30.2509 7.10457 29.8387 7.10457C29.4266 7.10457 29.0985 7.23495 28.8546 7.49571C28.6106 7.75647 28.4887 8.12237 28.4887 8.59342V12.4165H26.3311V3.07961H28.4887V6.32229C28.7074 6.01106 29.006 5.76291 29.3845 5.57786C29.763 5.3928 30.1878 5.30028 30.6589 5.30028Z" fill="#2A394F"/>
</svg>
