<svg width="18.75" height="18.75" viewBox="0 0 19 19" fill="none" xmlns="http://www.w3.org/2000/svg">
<path d="M1.58333 18.875L8.14583 12.3125C8.66667 12.7292 9.26563 13.059 9.94271 13.3021C10.6198 13.5451 11.3403 13.6667 12.1042 13.6667C13.9965 13.6667 15.5979 13.0115 16.9083 11.701C18.2194 10.3899 18.875 8.78819 18.875 6.89583C18.875 5.00347 18.2194 3.40174 16.9083 2.09063C15.5979 0.780208 13.9965 0.125 12.1042 0.125C10.2118 0.125 8.61007 0.780208 7.29896 2.09063C5.98854 3.40174 5.33333 5.00347 5.33333 6.89583C5.33333 7.65972 5.45486 8.38021 5.69792 9.05729C5.94097 9.73437 6.27083 10.3333 6.6875 10.8542L0.125 17.4167L1.58333 18.875ZM12.1042 11.5833C10.8021 11.5833 9.69514 11.1278 8.78333 10.2167C7.87222 9.30486 7.41667 8.19792 7.41667 6.89583C7.41667 5.59375 7.87222 4.4868 8.78333 3.575C9.69514 2.66389 10.8021 2.20833 12.1042 2.20833C13.4062 2.20833 14.5132 2.66389 15.425 3.575C16.3361 4.4868 16.7917 5.59375 16.7917 6.89583C16.7917 8.19792 16.3361 9.30486 15.425 10.2167C14.5132 11.1278 13.4062 11.5833 12.1042 11.5833Z" fill="#B1B8C0"/>
</svg>
