<svg width="17" height="35" viewBox="0 0 17 35" fill="none" xmlns="http://www.w3.org/2000/svg">
<path d="M9.70747 22.5655V12.5586H7.28086V22.5655C6.47133 22.854 5.78904 23.4215 5.35458 24.1679C4.92013 24.9143 4.76148 25.7914 4.90668 26.6443C5.05187 27.4971 5.49157 28.2708 6.14805 28.8286C6.80453 29.3863 7.63552 29.6922 8.49416 29.6922C9.3528 29.6922 10.1838 29.3863 10.8403 28.8286C11.4968 28.2708 11.9365 27.4971 12.0816 26.6443C12.2268 25.7914 12.0682 24.9143 11.6337 24.1679C11.1993 23.4215 10.517 22.854 9.70747 22.5655Z" fill="#ABABAB"/>
<path d="M8.49417 34.5674C6.82221 34.5693 5.18696 34.0733 3.79377 33.1418C2.40057 32.2102 1.31153 30.8846 0.663413 29.3313C0.0152921 27.7781 -0.163023 26.0665 0.15086 24.4115C0.464743 22.7565 1.25683 21.2318 2.42766 20.029V6.44429C2.42766 4.82283 3.06681 3.26778 4.2045 2.12123C5.34219 0.974689 6.88523 0.330566 8.49417 0.330566C10.1031 0.330566 11.6462 0.974689 12.7838 2.12123C13.9215 3.26778 14.5607 4.82283 14.5607 6.44429V20.029C15.7315 21.2318 16.5236 22.7565 16.8375 24.4115C17.1514 26.0665 16.9731 27.7781 16.3249 29.3313C15.6768 30.8846 14.5878 32.2102 13.1946 33.1418C11.8014 34.0733 10.1661 34.5693 8.49417 34.5674ZM8.49417 2.77605C7.5291 2.77703 6.60384 3.16381 5.92143 3.85153C5.23903 4.53924 4.85523 5.47171 4.85426 6.44429V21.0964L4.45145 21.462C3.53526 22.2873 2.88934 23.3735 2.5992 24.5768C2.30905 25.7802 2.38836 27.0439 2.82662 28.2009C3.26488 29.3578 4.04143 30.3533 5.05348 31.0557C6.06553 31.758 7.26537 32.1341 8.49417 32.1341C9.72298 32.1341 10.9228 31.758 11.9349 31.0557C12.9469 30.3533 13.7235 29.3578 14.1617 28.2009C14.6 27.0439 14.6793 25.7802 14.3891 24.5768C14.099 23.3735 13.4531 22.2873 12.5369 21.462L12.1341 21.0964V6.44429C12.1331 5.47171 11.7493 4.53924 11.0669 3.85153C10.3845 3.16381 9.45924 2.77703 8.49417 2.77605Z" fill="#ABABAB"/>
</svg>
