<svg width="33" height="34" viewBox="0 0 33 34" fill="none" xmlns="http://www.w3.org/2000/svg">
<path d="M25.85 16.9668C25.85 18.8304 25.3016 20.6522 24.2742 22.2018C23.2468 23.7514 21.7866 24.9591 20.0781 25.6723C18.3696 26.3855 16.4896 26.5721 14.6759 26.2085C12.8622 25.8449 11.1962 24.9475 9.88855 23.6297C8.58093 22.3119 7.69043 20.6329 7.32966 18.8051C6.96889 16.9772 7.15405 15.0826 7.86173 13.3608C8.56941 11.6391 9.76782 10.1674 11.3054 9.13204C12.843 8.09666 14.6507 7.54402 16.5 7.54402C18.9787 7.54769 21.3548 8.54162 23.1074 10.3079C24.8601 12.0742 25.8464 14.4688 25.85 16.9668ZM16.5 5.3269C16.7917 5.3269 17.0715 5.21011 17.2778 5.00221C17.4841 4.79431 17.6 4.51235 17.6 4.21834V1.44694C17.6 1.15293 17.4841 0.870964 17.2778 0.663069C17.0715 0.455173 16.7917 0.338379 16.5 0.338379C16.2083 0.338379 15.9285 0.455173 15.7222 0.663069C15.5159 0.870964 15.4 1.15293 15.4 1.44694V4.21834C15.4 4.51235 15.5159 4.79431 15.7222 5.00221C15.9285 5.21011 16.2083 5.3269 16.5 5.3269ZM6.77875 8.73572C6.98669 8.93972 7.26543 9.05387 7.55563 9.05387C7.84582 9.05387 8.12456 8.93972 8.3325 8.73572C8.53821 8.52791 8.65374 8.24635 8.65374 7.9528C8.65374 7.65926 8.53821 7.3777 8.3325 7.16988L6.39375 5.20219C6.29512 5.08108 6.17243 4.98212 6.03356 4.91168C5.8947 4.84124 5.74274 4.80088 5.58746 4.7932C5.43219 4.78551 5.27703 4.81067 5.13199 4.86706C4.98694 4.92345 4.85522 5.00981 4.74529 5.12059C4.63536 5.23138 4.54966 5.36413 4.49371 5.5103C4.43776 5.65648 4.41279 5.81284 4.42042 5.96932C4.42805 6.12581 4.46809 6.27895 4.53799 6.4189C4.60789 6.55884 4.70608 6.68249 4.82625 6.78189L6.77875 8.73572ZM4.95 16.9668C4.95 16.6728 4.83411 16.3908 4.62782 16.1829C4.42153 15.975 4.14174 15.8582 3.85 15.8582H1.1C0.808262 15.8582 0.528472 15.975 0.322183 16.1829C0.115892 16.3908 0 16.6728 0 16.9668C0 17.2608 0.115892 17.5428 0.322183 17.7507C0.528472 17.9586 0.808262 18.0753 1.1 18.0753H3.85C4.14174 18.0753 4.42153 17.9586 4.62782 17.7507C4.83411 17.5428 4.95 17.2608 4.95 16.9668ZM6.77875 25.1978L4.82625 27.1517C4.61969 27.3619 4.50381 27.6457 4.50381 27.9415C4.50381 28.2373 4.61969 28.5212 4.82625 28.7314C5.0389 28.9324 5.31845 29.0461 5.61 29.0501C5.90209 29.0488 6.1826 28.9348 6.39375 28.7314L8.3325 26.7637C8.5221 26.5528 8.62396 26.2765 8.61701 25.9921C8.61006 25.7076 8.49483 25.4367 8.29516 25.2355C8.0955 25.0343 7.8267 24.9181 7.54442 24.9111C7.26214 24.9041 6.988 25.0068 6.77875 25.1978ZM16.5 28.6067C16.2083 28.6067 15.9285 28.7235 15.7222 28.9314C15.5159 29.1393 15.4 29.4212 15.4 29.7152V32.4866C15.4 32.7806 15.5159 33.0626 15.7222 33.2705C15.9285 33.4784 16.2083 33.5952 16.5 33.5952C16.7917 33.5952 17.0715 33.4784 17.2778 33.2705C17.4841 33.0626 17.6 32.7806 17.6 32.4866V29.7152C17.6 29.4212 17.4841 29.1393 17.2778 28.9314C17.0715 28.7235 16.7917 28.6067 16.5 28.6067ZM26.2213 25.1978C26.012 25.0068 25.7379 24.9041 25.4556 24.9111C25.1733 24.9181 24.9045 25.0343 24.7048 25.2355C24.5052 25.4367 24.3899 25.7076 24.383 25.9921C24.376 26.2765 24.4779 26.5528 24.6675 26.7637L26.6063 28.7314C26.8174 28.9348 27.0979 29.0488 27.39 29.0501C27.6816 29.0461 27.9611 28.9324 28.1737 28.7314C28.3803 28.5212 28.4962 28.2373 28.4962 27.9415C28.4962 27.6457 28.3803 27.3619 28.1737 27.1517L26.2213 25.1978ZM31.9 15.8582H29.15C28.8583 15.8582 28.5785 15.975 28.3722 16.1829C28.1659 16.3908 28.05 16.6728 28.05 16.9668C28.05 17.2608 28.1659 17.5428 28.3722 17.7507C28.5785 17.9586 28.8583 18.0753 29.15 18.0753H31.9C32.1917 18.0753 32.4715 17.9586 32.6778 17.7507C32.8841 17.5428 33 17.2608 33 16.9668C33 16.6728 32.8841 16.3908 32.6778 16.1829C32.4715 15.975 32.1917 15.8582 31.9 15.8582ZM25.4513 9.05443C25.5942 9.05571 25.736 9.02817 25.8682 8.97343C26.0004 8.9187 26.1205 8.83788 26.2213 8.73572L28.1737 6.78189C28.3492 6.5665 28.4388 6.29306 28.4252 6.01475C28.4117 5.73644 28.2959 5.47317 28.1004 5.27614C27.9049 5.07911 27.6436 4.96241 27.3675 4.94874C27.0913 4.93507 26.82 5.02541 26.6063 5.20219L24.6675 7.16988C24.4618 7.3777 24.3463 7.65926 24.3463 7.9528C24.3463 8.24635 24.4618 8.52791 24.6675 8.73572C24.7699 8.83957 24.8922 8.92137 25.0269 8.97616C25.1616 9.03095 25.306 9.05758 25.4513 9.05443Z" fill="#ABABAB"/>
</svg>
