<svg width="41" height="33" viewBox="0 0 41 33" fill="none" xmlns="http://www.w3.org/2000/svg">
<path d="M1.43831 11.9344C1.05685 11.9344 0.691007 11.7817 0.421272 11.5099C0.151536 11.238 0 10.8693 0 10.4849C0 10.1005 0.151536 9.73179 0.421272 9.45996C0.691007 9.18812 1.05685 9.03541 1.43831 9.03541H18.6981C19.2232 9.03501 19.7382 8.88976 20.1872 8.61541C20.6363 8.34106 21.0022 7.94806 21.2454 7.47903C21.4886 7.01 21.5998 6.48283 21.5669 5.95467C21.5339 5.4265 21.3582 4.91749 21.0587 4.48282C20.7591 4.04814 20.3473 3.70439 19.8677 3.48882C19.3881 3.27324 18.8591 3.19408 18.3381 3.2599C17.817 3.32573 17.3238 3.53403 16.9119 3.86224C16.4999 4.19044 16.185 4.62601 16.0012 5.12175C15.944 5.31007 15.8492 5.48465 15.7228 5.63484C15.5964 5.78504 15.4409 5.90769 15.2659 5.99531C15.0908 6.08293 14.8999 6.13368 14.7048 6.14447C14.5096 6.15526 14.3143 6.12585 14.1309 6.05805C13.9474 5.99024 13.7795 5.88546 13.6375 5.75011C13.4956 5.61475 13.3825 5.45165 13.3051 5.27077C13.2278 5.08989 13.1878 4.89503 13.1877 4.69807C13.1876 4.50111 13.2273 4.30619 13.3044 4.12521C13.6691 3.13148 14.297 2.25744 15.1199 1.59805C15.9428 0.938665 16.9293 0.519129 17.9722 0.385017C19.0151 0.250905 20.0745 0.407345 21.0353 0.837345C21.9962 1.26734 22.8218 1.95446 23.4224 2.82406C24.023 3.69367 24.3757 4.7125 24.4422 5.7699C24.5086 6.8273 24.2863 7.88284 23.7994 8.82186C23.3124 9.76088 22.5794 10.5475 21.6801 11.0962C20.7807 11.645 19.7494 11.9349 18.6981 11.9344H1.43831ZM24.4513 20.6314H4.31494C3.93347 20.6314 3.56763 20.7842 3.2979 21.056C3.02816 21.3278 2.87662 21.6965 2.87662 22.081C2.87662 22.4654 3.02816 22.8341 3.2979 23.1059C3.56763 23.3777 3.93347 23.5305 4.31494 23.5305H24.4513C24.9764 23.5309 25.4914 23.6761 25.9405 23.9505C26.3895 24.2248 26.7555 24.6178 26.9987 25.0868C27.2419 25.5559 27.353 26.083 27.3201 26.6112C27.2872 27.1394 27.1114 27.6484 26.8119 28.083C26.5124 28.5177 26.1005 28.8615 25.6209 29.0771C25.1414 29.2926 24.6124 29.3718 24.0913 29.306C23.5703 29.2401 23.0771 29.0318 22.6651 28.7036C22.2532 28.3754 21.9383 27.9399 21.7545 27.4441C21.6972 27.2558 21.6025 27.0812 21.4761 26.931C21.3496 26.7808 21.1941 26.6582 21.0191 26.5706C20.8441 26.4829 20.6532 26.4322 20.458 26.4214C20.2629 26.4106 20.0676 26.44 19.8841 26.5078C19.7006 26.5756 19.5328 26.6804 19.3908 26.8158C19.2488 26.9511 19.1357 27.1142 19.0584 27.2951C18.981 27.476 18.9411 27.6708 18.9409 27.8678C18.9408 28.0648 18.9805 28.2597 19.0576 28.4407C19.4223 29.4344 20.0502 30.3084 20.8731 30.9678C21.6961 31.6272 22.6826 32.0467 23.7254 32.1809C24.7683 32.315 25.8277 32.1585 26.7886 31.7285C27.7494 31.2985 28.575 30.6114 29.1756 29.7418C29.7763 28.8722 30.129 27.8534 30.1954 26.796C30.2619 25.7386 30.0395 24.683 29.5526 23.744C29.0657 22.805 28.3327 22.0184 27.4333 21.4696C26.534 20.9209 25.5026 20.631 24.4513 20.6314ZM34.5195 6.1364C33.3449 6.13945 32.1992 6.50363 31.2354 7.18029C30.2716 7.85695 29.5356 8.81387 29.1258 9.92323C29.0487 10.1042 29.009 10.2991 29.0091 10.4961C29.0092 10.693 29.0492 10.8879 29.1265 11.0688C29.2039 11.2497 29.317 11.4128 29.459 11.5481C29.6009 11.6835 29.7688 11.7883 29.9523 11.8561C30.1358 11.9239 30.3311 11.9533 30.5262 11.9425C30.7213 11.9317 30.9123 11.8809 31.0873 11.7933C31.2623 11.7057 31.4178 11.5831 31.5442 11.4329C31.6707 11.2827 31.7654 11.1081 31.8226 10.9198C32.0064 10.424 32.3214 9.98845 32.7333 9.66025C33.1452 9.33205 33.6385 9.12375 34.1595 9.05792C34.6806 8.9921 35.2095 9.07126 35.6891 9.28683C36.1687 9.50241 36.5806 9.84616 36.8801 10.2808C37.1796 10.7155 37.3554 11.2245 37.3883 11.7527C37.4212 12.2809 37.31 12.808 37.0668 13.2771C36.8236 13.7461 36.4577 14.1391 36.0086 14.4134C35.5596 14.6878 35.0446 14.833 34.5195 14.8334H2.87662C2.49516 14.8334 2.12932 14.9861 1.85958 15.258C1.58985 15.5298 1.43831 15.8985 1.43831 16.2829C1.43831 16.6674 1.58985 17.0361 1.85958 17.3079C2.12932 17.5797 2.49516 17.7324 2.87662 17.7324H34.5195C36.0453 17.7324 37.5087 17.1216 38.5876 16.0342C39.6666 14.9469 40.2727 13.4721 40.2727 11.9344C40.2727 10.3967 39.6666 8.92194 38.5876 7.8346C37.5087 6.74726 36.0453 6.1364 34.5195 6.1364Z" fill="#ABABAB"/>
</svg>
